<?xml version="1.0" standalone="no"?>
<!DOCTYPE svg PUBLIC "-//W3C//DTD SVG 20010904//EN"
 "http://www.w3.org/TR/2001/REC-SVG-20010904/DTD/svg10.dtd">
<svg version="1.0" xmlns="http://www.w3.org/2000/svg"
 width="1030.000000pt" height="1028.000000pt" viewBox="0 0 1030.000000 1028.000000"
 preserveAspectRatio="xMidYMid meet">

<g transform="translate(0.000000,1028.000000) scale(0.100000,-0.100000)"
fill="#000000" stroke="none">
<path d="M2730 7205 l0 -75 -75 0 -75 0 0 -70 0 -70 75 0 75 0 0 70 0 70 510
0 510 0 0 -70 0 -70 75 0 75 0 0 70 0 70 -75 0 -75 0 0 75 0 75 -510 0 -510 0
0 -75z"/>
<path d="M6680 7205 l0 -75 -70 0 -69 0 -3 -72 -3 -73 -72 -3 -73 -3 0 -69 0
-70 -1170 0 -1170 0 0 70 0 70 -75 0 -75 0 0 -70 0 -70 75 0 75 0 0 -75 0 -75
1170 0 1170 0 0 70 0 69 73 3 72 3 3 72 3 72 72 3 72 3 3 73 3 72 509 0 510 0
0 -70 0 -70 70 0 70 0 0 70 0 70 -70 0 -70 0 0 75 0 75 -515 0 -515 0 0 -75z"/>
<path d="M2430 6910 l0 -70 -70 0 -70 0 0 -75 0 -75 -75 0 -76 0 3 -72 3 -73
70 0 70 0 3 73 3 72 69 0 70 0 0 75 0 75 75 0 75 0 0 70 0 70 -75 0 -75 0 0
-70z"/>
<path d="M7860 6910 l0 -70 70 0 70 0 0 -75 0 -75 75 0 75 0 0 -70 0 -70 70 0
70 0 0 70 0 70 -70 0 -69 0 -3 73 -3 72 -72 3 -73 3 0 69 0 70 -70 0 -70 0 0
-70z"/>
<path d="M6980 6765 l0 -75 -75 0 -75 0 0 -145 0 -145 75 0 74 0 3 -72 3 -73
140 0 140 0 0 70 0 70 -142 3 -143 3 0 144 0 144 143 3 142 3 3 66 3 66 -107
6 c-59 4 -124 7 -146 7 l-38 0 0 -75z"/>
<path d="M3020 6325 l0 -365 -220 0 -220 0 0 145 0 145 -70 0 c-60 0 -70 -3
-71 -17 -7 -128 -9 -214 -4 -240 l6 -33 69 0 70 0 0 -75 0 -75 220 0 220 0 0
-75 0 -75 70 0 69 0 3 148 3 147 147 3 147 3 3 -148 3 -148 70 0 70 0 3 72 3
72 72 3 72 3 0 70 0 70 -75 5 -75 5 -3 142 -3 142 78 3 78 3 0 70 0 70 -77 3
-78 3 0 -76 0 -75 -217 2 -218 3 -3 218 -2 217 -70 0 -70 0 0 -365z"/>
<path d="M7270 6545 l0 -145 70 0 70 0 0 145 0 145 -70 0 -70 0 0 -145z"/>
<path d="M1993 5228 l2 -1313 73 -3 72 -3 0 -74 0 -75 75 0 75 0 0 -75 0 -75
70 0 70 0 0 74 c0 85 -5 90 -88 85 l-47 -3 -3 72 -3 72 -68 0 -68 0 -6 123
c-3 67 -3 194 0 282 3 88 2 625 -2 1193 l-7 1032 -74 0 -73 0 2 -1312z"/>
<path d="M8292 6473 c0 -38 0 -629 -1 -1315 l-1 -1247 -72 -3 -73 -3 -3 -67
-3 -67 -67 -3 -67 -3 -3 -78 -3 -78 73 3 73 3 3 73 3 72 69 0 70 0 0 75 0 75
75 0 75 0 0 1315 0 1315 -75 0 -74 0 1 -67z"/>
<path d="M6390 6325 l0 -75 -75 0 -75 0 0 -145 0 -145 75 0 75 0 0 -75 0 -75
108 0 c59 0 124 3 145 6 l37 7 0 68 0 68 73 3 72 3 3 143 3 142 -76 0 -75 0 0
75 0 75 -145 0 -145 0 0 -75z"/>
<path d="M7560 6325 l0 -75 -70 0 -70 0 0 -145 0 -145 70 0 69 0 3 -72 3 -73
143 -3 142 -3 0 76 0 75 75 0 75 0 0 145 0 145 -75 0 -75 0 0 75 0 75 -145 0
-145 0 0 -75z"/>
<path d="M4489 5955 c0 -3 -1 -32 -1 -65 0 -33 1 -64 1 -70 1 -6 32 -10 71
-10 l70 0 0 75 0 75 -70 0 c-38 0 -70 -2 -71 -5z"/>
<path d="M5364 5946 c-3 -7 -4 -40 -2 -72 l3 -59 73 -3 72 -3 0 76 0 75 -70 0
c-50 0 -72 -4 -76 -14z"/>
<path d="M6980 5885 l0 -75 -75 0 -75 0 0 -145 0 -145 75 0 75 0 0 -75 0 -75
53 0 c28 0 76 3 104 6 48 6 52 9 47 29 -3 13 0 26 6 30 9 5 10 1 5 -14 -7 -25
7 -28 25 -6 7 9 19 14 27 11 10 -4 13 6 13 38 l0 44 -140 7 -140 8 0 142 0
143 140 7 140 7 0 63 0 62 -97 6 c-54 4 -117 7 -140 7 l-43 0 0 -75z m250
-429 c0 -3 -4 -8 -10 -11 -5 -3 -10 -1 -10 4 0 6 5 11 10 11 6 0 10 -2 10 -4z"/>
<path d="M7280 5670 l0 -140 65 0 65 0 0 140 0 140 -65 0 -65 0 0 -140z"/>
<path d="M7220 5395 c0 -8 9 -15 20 -15 11 0 20 7 20 15 0 8 -9 15 -20 15 -11
0 -20 -7 -20 -15z"/>
<path d="M4190 5155 l0 -75 -75 0 -75 0 0 -145 0 -145 -70 0 -70 0 0 -145 0
-144 -72 -3 -73 -3 -3 -142 c-2 -104 -6 -143 -15 -144 -6 0 -31 0 -54 1 -85 3
-83 7 -83 -156 l0 -144 -70 0 -70 0 -1 -82 c0 -46 0 -111 1 -145 l1 -63 -75 0
-76 0 0 -75 0 -75 -365 0 -365 0 0 69 0 69 -59 4 c-92 5 -91 6 -88 -70 l3 -67
72 -3 72 -3 0 -74 0 -75 365 0 365 0 0 75 0 75 75 0 75 0 0 70 0 69 73 3 72 3
3 148 3 147 69 0 70 0 0 145 0 145 75 0 75 0 0 145 0 144 73 3 72 3 3 148 3
147 69 0 70 0 0 145 0 145 1025 0 1025 0 0 -145 0 -145 75 0 75 0 0 -150 0
-150 75 0 75 0 0 -145 0 -145 70 0 70 0 0 -145 0 -145 75 0 74 0 3 -147 3
-148 73 -3 72 -3 0 -69 0 -70 70 0 69 0 3 -72 3 -73 363 -3 362 -2 0 75 0 75
75 0 75 0 0 68 c0 38 -2 71 -4 73 -2 2 -36 3 -75 1 l-71 -4 0 -69 0 -69 -360
0 -359 0 -3 73 -3 72 -72 3 -73 3 0 144 0 145 -75 0 -74 0 -3 148 -3 147 -60
2 c-33 1 -64 2 -70 2 -6 1 -10 56 -10 143 l0 143 -72 3 -73 3 0 144 0 145 -75
0 -75 0 0 145 0 145 -70 0 -69 0 -3 73 -3 72 -1027 3 -1028 2 0 -75z"/>
</g>
</svg>
